<svg xmlns="http://www.w3.org/2000/svg" viewBox="0 0 32 32" width="32" height="32">
  <defs>
    <linearGradient id="g" x1="0" y1="0" x2="1" y2="1">
      <stop offset="0" stop-color="#b02f00"/>
      <stop offset="1" stop-color="#ff5722"/>
    </linearGradient>
  </defs>
  <rect width="32" height="32" rx="8" fill="url(#g)"/>
  <path fill="#ffffff" d="M16 5c1.6 3 .3 5.2-1.1 6.8-1.6 1.8-3.4 3.6-3.4 6.6a4.5 4.5 0 0 0 2.4 4c-.5-.8-.6-1.7-.3-2.6.4-1.3 1.6-2.1 2.1-3.4.7 1 .9 1.9.8 2.9 1.4-.9 2.2-2.3 2.2-4 0-1.4-.5-2.5-1-3.5 1.2.5 2.1 1.4 2.6 2.7.7-2.2.2-4.6-1.4-6.7C18.6 8.4 17 6.9 16 5z"/>
</svg>
